<?xml version="1.0" encoding="iso-8859-1"?>
<!-- Generator: Adobe Illustrator 19.1.0, SVG Export Plug-In . SVG Version: 6.00 Build 0)  -->
<svg version="1.1" id="Capa_1" xmlns="http://www.w3.org/2000/svg" xmlns:xlink="http://www.w3.org/1999/xlink" x="0px" y="0px"
	 viewBox="0 0 474 474" style="enable-background:new 0 0 474 474;" xml:space="preserve">
<g>
	<g>
		<path d="M329.447,256.4l-80.4,80.4V12c0-6.6-5.4-12-12-12s-12,5.4-12,12v324.8l-80.4-80.4c-4.7-4.7-12.3-4.7-17,0s-4.7,12.3,0,17
			l100.9,100.9c2.3,2.3,5.4,3.5,8.5,3.5s6.1-1.2,8.5-3.5l100.9-100.9c4.7-4.7,4.7-12.3,0-17
			C341.747,251.7,334.147,251.7,329.447,256.4z"/>
		<path d="M436.947,453.5c-2.2-2.2-5.3-3.5-8.5-3.5s-6.3,1.3-8.5,3.5s-3.5,5.3-3.5,8.5s1.3,6.3,3.5,8.5s5.3,3.5,8.5,3.5
			s6.3-1.3,8.5-3.5s3.5-5.3,3.5-8.5C440.547,458.8,439.247,455.8,436.947,453.5z"/>
		<path d="M93.447,450c-6.6,0-12,5.4-12,12s5.4,12,12,12s12-5.4,12-12S100.047,450,93.447,450z"/>
		<path d="M141.347,450c-6.6,0-12,5.4-12,12s5.4,12,12,12s12-5.4,12-12S147.947,450,141.347,450z"/>
		<path d="M380.647,450c-6.6,0-12,5.4-12,12s5.4,12,12,12s12-5.4,12-12S387.247,450,380.647,450z"/>
		<path d="M332.747,450c-6.6,0-12,5.4-12,12s5.4,12,12,12s12-5.4,12-12S339.447,450,332.747,450z"/>
		<path d="M189.147,450c-6.6,0-12,5.4-12,12s5.4,12,12,12s12-5.4,12-12S195.847,450,189.147,450z"/>
		<path d="M237.047,450c-6.6,0-12,5.4-12,12s5.4,12,12,12s12-5.4,12-12S243.647,450,237.047,450z"/>
		<path d="M284.947,450c-6.6,0-12,5.4-12,12s5.4,12,12,12s12-5.4,12-12S291.547,450,284.947,450z"/>
		<path d="M45.547,450c-3.2,0-6.3,1.3-8.5,3.5s-3.5,5.3-3.5,8.5s1.3,6.3,3.5,8.5s5.3,3.5,8.5,3.5c3.2,0,6.3-1.3,8.5-3.5
			s3.5-5.3,3.5-8.5s-1.3-6.3-3.5-8.5S48.747,450,45.547,450z"/>
	</g>
</g>
<g>
</g>
<g>
</g>
<g>
</g>
<g>
</g>
<g>
</g>
<g>
</g>
<g>
</g>
<g>
</g>
<g>
</g>
<g>
</g>
<g>
</g>
<g>
</g>
<g>
</g>
<g>
</g>
<g>
</g>
</svg>
